<?xml version="1.0" encoding="utf-8"?>
<!-- Generator: Adobe Illustrator 16.0.0, SVG Export Plug-In . SVG Version: 6.00 Build 0)  -->
<!DOCTYPE svg PUBLIC "-//W3C//DTD SVG 1.1//EN" "http://www.w3.org/Graphics/SVG/1.1/DTD/svg11.dtd">
<svg version="1.1" id="Layer_1" xmlns="http://www.w3.org/2000/svg" xmlns:xlink="http://www.w3.org/1999/xlink" x="0px" y="0px"
	 width="817.545px" height="223.703px" viewBox="0 0 817.545 223.703" enable-background="new 0 0 817.545 223.703"
	 xml:space="preserve">
<g>
	<g>
		<g>
			<path fill-rule="evenodd" clip-rule="evenodd" fill="#95C93D" d="M764.438,39.911h22.881c6.849,0,12.437,6.759,12.437,15.052
				v12.884c0,8.259-5.588,15.04-12.437,15.04h-22.881c-6.862,0-12.449-6.781-12.449-15.04V54.963
				C751.989,46.67,757.576,39.911,764.438,39.911z M756.766,25.499h38.231c11.435,0,20.812,11.313,20.812,25.137v21.54
				c0,13.822-9.377,25.118-20.812,25.118h-38.231c-11.452,0-20.813-11.296-20.813-25.118v-21.54
				C735.953,36.812,745.313,25.499,756.766,25.499z"/>
			<path fill-rule="evenodd" clip-rule="evenodd" fill="#95C93D" d="M614.558,26.403h48.722c8.299,0,15.085,9.354,15.085,20.759
				v49.823h-14.466V54.997c0-7.12-4.229-12.91-9.388-12.91h-30.322c-5.175,0-9.399,5.79-9.399,12.91v42.128h-15.322V47.162
				C599.467,35.758,606.258,26.403,614.558,26.403z"/>
			<path fill-rule="evenodd" clip-rule="evenodd" fill="#95C93D" d="M505.377,24.705h-21.529c-9.678,0-17.601,9.689-17.601,21.536
				v51.996h15.78V50.229c0-5.256,3.513-9.579,7.824-9.579h15.525V24.705z"/>
			<path fill-rule="evenodd" clip-rule="evenodd" fill="#95C93D" d="M319.896,39.911h22.88c6.861,0,12.454,6.759,12.454,15.052
				v12.884c0,8.259-5.593,15.04-12.454,15.04h-22.88c-6.844,0-12.449-6.781-12.449-15.04V54.963
				C307.447,46.67,313.052,39.911,319.896,39.911z M312.228,25.499h38.222c11.452,0,20.811,11.313,20.811,25.137v21.54
				c0,13.822-9.359,25.118-20.811,25.118h-38.222c-11.457,0-20.811-11.296-20.811-25.118v-21.54
				C291.417,36.812,300.771,25.499,312.228,25.499z"/>
			<path fill-rule="evenodd" clip-rule="evenodd" fill="#95C93D" d="M221.722,26.403h48.728c8.305,0,15.092,9.354,15.092,20.759
				v49.823h-14.472V54.997c0-7.12-4.219-12.91-9.394-12.91h-30.328c-5.163,0-9.394,5.79-9.394,12.91v42.128h-15.317V47.162
				C206.636,35.758,213.435,26.403,221.722,26.403z"/>
			<path fill-rule="evenodd" clip-rule="evenodd" fill="#95C93D" d="M443.72,97.294h-48.715c-8.305,0-15.103-9.333-15.103-20.737
				V26.705h14.477v42.012c0,7.1,4.219,12.905,9.377,12.905h30.333c5.181,0,9.399-5.806,9.399-12.905V26.572h15.334v49.984
				C458.822,87.961,452.031,97.294,443.72,97.294z"/>
			<path fill-rule="evenodd" clip-rule="evenodd" fill="#95C93D" d="M693.665,6.062h15.369v17.416
				c0.904-1.413,1.825-2.794,2.759-4.058c3.998-5.535,8.866-6.971,14.176-7.557c7.069-0.794,12.257-0.835,18.8-4.463
				c-0.012,5.953-1.066,11.545-3.274,16.721c-4.398,10.332-11.504,16-20.857,17.867c-3.692,0.74-7.615,0.835-11.603,0.335v54.971
				h-15.369V42.162h-9.272v-15.44h9.272V6.062z"/>
			<path fill="#FFFFFF" d="M715.769,32.125c-0.278,0.231-0.684,0.138-0.869-0.227c-0.187-0.359-0.104-0.847,0.196-1.073
				c0.325-0.266,0.719-0.584,1.078-0.868c1.595-1.286,2.893-2.343,4.95-3.042h0.017h0.029l0.006-0.02
				c0.725-0.241,1.419-0.458,2.099-0.642c2.3-0.656,4.711-1.38,6.774-3.061h0.006c0.469-0.394,0.955-0.777,1.454-1.146
				c1.112-0.875,2.242-1.739,3.228-2.778c0.261-0.29,0.667-0.254,0.898,0.072c0.221,0.318,0.186,0.827-0.074,1.095
				c-1.062,1.112-2.221,2.038-3.38,2.909c-0.469,0.376-0.932,0.758-1.378,1.117l-0.035,0.017c-2.278,1.855-4.799,2.581-7.193,3.28
				c-0.724,0.21-1.431,0.425-2.057,0.632l-0.058,0.02c-1.854,0.642-3.101,1.641-4.579,2.827
				C716.545,31.521,716.209,31.787,715.769,32.125z"/>
			
				<path fill="none" stroke="#FFFFFF" stroke-width="1.8841" stroke-linecap="round" stroke-linejoin="round" stroke-miterlimit="2.613" d="
				M715.769,32.125c-0.278,0.231-0.684,0.138-0.869-0.227c-0.187-0.359-0.104-0.847,0.196-1.073
				c0.325-0.266,0.719-0.584,1.078-0.868c1.595-1.286,2.893-2.343,4.95-3.042h0.017h0.029l0.006-0.02
				c0.725-0.241,1.419-0.458,2.099-0.642c2.3-0.656,4.711-1.38,6.774-3.061h0.006c0.469-0.394,0.955-0.777,1.454-1.146
				c1.112-0.875,2.242-1.739,3.228-2.778c0.261-0.29,0.667-0.254,0.898,0.072c0.221,0.318,0.186,0.827-0.074,1.095
				c-1.062,1.112-2.221,2.038-3.38,2.909c-0.469,0.376-0.932,0.758-1.378,1.117l-0.035,0.017c-2.278,1.855-4.799,2.581-7.193,3.28
				c-0.724,0.21-1.431,0.425-2.057,0.632l-0.058,0.02c-1.854,0.642-3.101,1.641-4.579,2.827
				C716.545,31.521,716.209,31.787,715.769,32.125z"/>
			<path fill-rule="evenodd" clip-rule="evenodd" fill="#95C93D" d="M533.225,61.049h44.531v14.599c0,2.683-2.746,4.875-6.125,4.875
				h-38.406c-3.373,0-6.137-2.192-6.137-4.875V65.9C527.088,63.239,529.852,61.049,533.225,61.049z M526.623,45.18h50.131
				c0.023-3.812,0.729-4.137-2.452-4.195l-24.131-0.335V25.482h24.375c12.577,0,19.959,6.982,19.959,19.697v30.735
				c0,11.27-7.308,20.509-16.284,20.509h-51.598c-8.96,0-16.29-9.239-16.29-20.509V65.678
				C510.333,54.401,517.663,45.18,526.623,45.18z"/>
		</g>
		<g>
			<path fill-rule="evenodd" clip-rule="evenodd" fill="#95C93D" d="M87.442,0c48.292,0,87.446,43.952,87.446,98.146
				c0,54.211-39.154,98.163-87.446,98.163C39.154,196.309,0,152.356,0,98.146C0,43.952,39.154,0,87.442,0z"/>
			<path fill-rule="evenodd" clip-rule="evenodd" fill="#FFFFFF" d="M59.572,76.33l0.295-0.381c0.046-0.133,0.081-0.302,0.093-0.512
				c-4.289-9.363-16.141-16.545-24.161-23.909c4.439,9.596,18.203,15.298,23.454,24.872C59.363,76.4,59.485,76.366,59.572,76.33z
				 M71.458,69.701h56.934c9.691,0,17.635,11.33,17.635,25.159v60.386h-16.904v-50.887c0-8.613-4.944-15.66-10.982-15.66H82.701
				c-6.039,0-10.977,7.047-10.977,15.66v51.061H53.822V94.86c0-4.156,0.725-8.11,1.988-11.563
				c-11.127-1.455-20.833-5.047-25.059-21.971c-1.704-6.751-2.186-13.127-1.727-20.416l10.652,4.306
				c7.082,3.454,14.245,6.429,19.206,14.054c2.365,3.615,3.987,8.106,4.219,13.445C65.593,70.797,68.445,69.701,71.458,69.701z"/>
		</g>
		<polygon fill="#95C93D" stroke="#95C93D" stroke-width="1.8841" stroke-miterlimit="2.613" points="202.556,114.488 
			816.603,114.408 816.603,120.868 202.556,120.967 		"/>
		<path fill="#95C93D" d="M280.961,157.364h3.13c2.022,0,3.28-0.095,3.779-0.321c0.51-0.19,0.898-0.55,1.188-1.078
			c0.272-0.509,0.423-1.153,0.423-1.905c0-0.868-0.186-1.57-0.568-2.075c-0.37-0.54-0.903-0.875-1.587-1.024
			c-0.326-0.061-1.368-0.075-3.066-0.075h-3.299V157.364z M276.743,172.117V146.56h8.885c2.231,0,3.847,0.22,4.861,0.695
			c1.008,0.453,1.832,1.264,2.423,2.44c0.62,1.166,0.916,2.509,0.916,4.021c0,1.92-0.458,3.512-1.38,4.759
			c-0.921,1.245-2.3,2.038-4.138,2.364c0.928,0.653,1.669,1.355,2.266,2.133c0.591,0.793,1.386,2.173,2.405,4.155l2.551,4.989
			h-5.054l-3.037-5.559c-1.097-2.004-1.832-3.251-2.237-3.777c-0.389-0.511-0.812-0.852-1.258-1.054
			c-0.457-0.186-1.165-0.284-2.126-0.284h-0.859v10.674H276.743z M242.435,159.322c0,2.897,0.556,5.088,1.639,6.583
			c1.102,1.488,2.487,2.236,4.167,2.236c1.687,0,3.066-0.729,4.138-2.224c1.072-1.491,1.623-3.698,1.623-6.665
			c0-2.934-0.533-5.119-1.576-6.554c-1.049-1.457-2.446-2.176-4.185-2.176c-1.738,0-3.141,0.738-4.207,2.197
			C242.974,154.17,242.435,156.36,242.435,159.322z M238.094,159.496c0-2.603,0.313-4.8,0.951-6.573c0.48-1.28,1.13-2.458,1.958-3.5
			c0.829-1.032,1.721-1.784,2.684-2.301c1.298-0.656,2.804-0.996,4.508-0.996c3.083,0,5.541,1.165,7.395,3.512
			c1.843,2.323,2.776,5.574,2.776,9.73c0,4.132-0.921,7.359-2.752,9.685c-1.849,2.323-4.289,3.493-7.36,3.493
			c-3.107,0-5.576-1.148-7.407-3.476C239.009,166.745,238.094,163.559,238.094,159.496z M206.074,172.117V146.56h14.326v4.325
			h-10.107v6.043h8.723v4.324h-8.723v10.865H206.074z"/>
		<path fill="#95C93D" d="M494.43,172.377V146.82h15.497v4.325h-11.272v5.673h10.49v4.299h-10.49v6.949h11.673v4.311H494.43z
			 M460.556,151.146v16.921h3.142c1.17,0,2.034-0.074,2.556-0.243c0.685-0.203,1.246-0.538,1.703-1.055
			c0.459-0.491,0.812-1.321,1.091-2.468c0.289-1.143,0.439-2.706,0.439-4.688c0-1.971-0.15-3.474-0.439-4.54
			c-0.279-1.054-0.678-1.881-1.194-2.468c-0.51-0.603-1.159-1.008-1.948-1.206c-0.591-0.174-1.731-0.253-3.459-0.253H460.556z
			 M456.331,146.82h7.708c1.739,0,3.06,0.169,3.975,0.494c1.224,0.435,2.272,1.229,3.148,2.364c0.874,1.124,1.535,2.484,2.004,4.132
			c0.446,1.629,0.668,3.645,0.668,6.043c0,2.094-0.198,3.912-0.627,5.437c-0.532,1.862-1.264,3.351-2.243,4.499
			c-0.724,0.875-1.721,1.57-2.961,2.063c-0.921,0.352-2.179,0.525-3.732,0.525h-7.939V146.82z M429.324,162.271l-2.886-9.479
			l-2.822,9.479H429.324z M437.091,172.377h-4.597l-1.814-5.794h-8.356l-1.721,5.794h-4.479l8.136-25.557h4.463L437.091,172.377z
			 M384.381,157.625h3.124c2.029,0,3.286-0.088,3.796-0.302c0.504-0.21,0.892-0.563,1.177-1.079
			c0.284-0.511,0.423-1.147,0.423-1.924c0-0.869-0.18-1.547-0.545-2.08c-0.389-0.528-0.921-0.863-1.611-0.998
			c-0.331-0.051-1.362-0.097-3.078-0.097h-3.285V157.625z M380.168,172.377V146.82h8.878c2.237,0,3.849,0.231,4.868,0.686
			c1.01,0.468,1.826,1.28,2.435,2.457c0.608,1.163,0.893,2.51,0.893,4.039c0,1.905-0.452,3.5-1.368,4.739
			c-0.921,1.247-2.301,2.041-4.138,2.359c0.926,0.644,1.669,1.362,2.271,2.156c0.58,0.753,1.392,2.149,2.388,4.137l2.562,4.983
			h-5.053l-3.037-5.551c-1.089-2.004-1.843-3.251-2.237-3.755c-0.394-0.54-0.822-0.876-1.263-1.062
			c-0.452-0.213-1.148-0.299-2.122-0.299h-0.863v10.666H380.168z M350.008,172.377v-21.231h-6.201v-4.325h16.598v4.325h-6.178
			v21.231H350.008z"/>
		<path fill="#95C93D" d="M558.638,160.766c-0.909,0.562-1.605,1.264-2.068,2.057c-0.452,0.794-0.673,1.604-0.673,2.451
			c0,1.062,0.289,1.93,0.847,2.598c0.562,0.676,1.32,0.989,2.271,0.989c0.638,0,1.235-0.149,1.81-0.446
			c0.578-0.307,1.228-0.794,1.895-1.518L558.638,160.766z M560.214,155.439l1.084-1.004c0.794-0.758,1.193-1.513,1.193-2.253
			c0-0.622-0.19-1.173-0.579-1.602c-0.383-0.435-0.904-0.661-1.564-0.661c-0.626,0-1.125,0.188-1.495,0.586
			c-0.348,0.379-0.546,0.835-0.546,1.339c0,0.608,0.302,1.347,0.916,2.215L560.214,155.439z M571.115,169.343l-2.429,3.772
			c-1.188-0.702-2.318-1.682-3.413-2.928c-0.857,0.928-1.75,1.623-2.707,2.057c-0.938,0.441-2.069,0.661-3.384,0.661
			c-2.591,0-4.556-0.88-5.871-2.683c-1.009-1.379-1.519-2.962-1.519-4.775c0-1.616,0.395-3.095,1.194-4.422
			c0.812-1.305,1.993-2.434,3.569-3.4c-0.706-1.033-1.252-2.024-1.611-2.963c-0.354-0.926-0.533-1.818-0.533-2.644
			c0-1.554,0.499-2.851,1.513-3.93c1.015-1.078,2.452-1.623,4.33-1.623c1.796,0,3.217,0.569,4.229,1.693
			c1.021,1.119,1.519,2.499,1.519,4.12c0,1.037-0.242,2.023-0.753,2.95c-0.498,0.945-1.512,1.982-3.049,3.164l2.915,4.694
			c0.343-0.735,0.626-1.72,0.876-2.909l3.628,0.996c-0.372,1.565-0.673,2.719-0.939,3.438c-0.261,0.735-0.544,1.339-0.857,1.838
			c0.439,0.509,1.021,1.055,1.727,1.675C570.263,168.728,570.773,169.133,571.115,169.343z"/>
		<path fill="#95C93D" d="M806.078,172.377v-21.231h-6.206v-4.325h16.603v4.325h-6.184v21.231H806.078z M768.681,157.625h3.106
			c2.022,0,3.291-0.088,3.796-0.302c0.516-0.21,0.898-0.563,1.182-1.079c0.284-0.511,0.43-1.147,0.43-1.924
			c0-0.869-0.192-1.547-0.563-2.08c-0.376-0.528-0.915-0.863-1.595-0.998c-0.341-0.051-1.378-0.097-3.088-0.097h-3.269V157.625z
			 M764.438,172.377V146.82h8.89c2.237,0,3.859,0.231,4.857,0.686c1.014,0.468,1.843,1.28,2.444,2.457
			c0.615,1.163,0.917,2.51,0.917,4.039c0,1.905-0.476,3.5-1.392,4.739c-0.916,1.247-2.294,2.041-4.132,2.359
			c0.91,0.644,1.675,1.362,2.266,2.156c0.58,0.753,1.386,2.149,2.399,4.137l2.538,4.983h-5.041l-3.037-5.551
			c-1.102-2.004-1.837-3.251-2.231-3.755c-0.394-0.54-0.817-0.876-1.27-1.062c-0.451-0.213-1.159-0.299-2.12-0.299h-0.847v10.666
			H764.438z M729.376,159.593c0,2.888,0.545,5.077,1.634,6.59c1.102,1.491,2.475,2.231,4.167,2.231c1.682,0,3.065-0.74,4.133-2.231
			c1.083-1.476,1.61-3.702,1.61-6.665c0-2.926-0.515-5.099-1.564-6.559c-1.055-1.433-2.445-2.156-4.179-2.156
			c-1.738,0-3.146,0.724-4.219,2.174C729.904,154.436,729.376,156.645,729.376,159.593z M725.03,159.757
			c0-2.603,0.313-4.793,0.955-6.549c0.481-1.306,1.119-2.476,1.941-3.513c0.823-1.044,1.716-1.797,2.7-2.289
			c1.3-0.678,2.806-1.013,4.504-1.013c3.089,0,5.541,1.163,7.39,3.51c1.843,2.317,2.781,5.569,2.781,9.726
			c0,4.137-0.928,7.364-2.771,9.689c-1.831,2.325-4.276,3.495-7.349,3.495c-3.095,0-5.574-1.153-7.417-3.471
			C725.945,167.013,725.03,163.831,725.03,159.757z M694.783,151.146v7.248h2.301c1.657,0,2.781-0.128,3.339-0.388
			c0.556-0.266,0.996-0.683,1.315-1.265c0.324-0.566,0.48-1.228,0.48-1.979c0-0.93-0.232-1.706-0.678-2.309
			c-0.435-0.608-1.015-0.989-1.692-1.129c-0.511-0.116-1.524-0.179-3.031-0.179H694.783z M690.558,172.377V146.82h6.771
			c2.567,0,4.23,0.133,5.006,0.4c1.206,0.371,2.215,1.211,3.021,2.492c0.793,1.28,1.2,2.949,1.2,4.967
			c0,1.564-0.215,2.892-0.696,3.97c-0.463,1.054-1.061,1.901-1.773,2.525c-0.719,0.587-1.443,1.004-2.179,1.211
			c-1.021,0.228-2.469,0.354-4.382,0.354h-2.741v9.637H690.558z M653.103,172.377l7.151-13.334l-6.473-12.223h4.926l4.195,8.219
			l4.104-8.219h4.886l-6.497,12.416l7.14,13.141h-5.095l-4.624-8.836l-4.636,8.836H653.103z M619.918,172.377V146.82h15.48v4.325
			h-11.268v5.673h10.49v4.299h-10.49v6.949h11.66v4.311H619.918z"/>
	</g>
	<g>
		<path fill="#95C93D" d="M790.06,211.968h4.016v4.629h-4.016V211.968z M787.266,199.131v3.692h-2.74v7.034
			c0,1.42,0.029,2.26,0.081,2.486c0.046,0.236,0.162,0.43,0.354,0.596c0.18,0.145,0.411,0.223,0.678,0.223
			c0.383,0,0.915-0.141,1.628-0.435l0.343,3.575c-0.944,0.468-2.006,0.694-3.188,0.694c-0.719,0-1.368-0.145-1.959-0.417
			c-0.58-0.277-1.002-0.649-1.28-1.101c-0.267-0.429-0.459-1.032-0.557-1.784c-0.082-0.533-0.134-1.648-0.134-3.269v-7.604h-1.831
			v-3.692h1.831v-3.477l4.034-2.697v6.174H787.266z M766.287,207.568c0,1.971,0.331,3.42,1.003,4.334
			c0.684,0.951,1.5,1.421,2.469,1.421c0.944,0,1.727-0.435,2.335-1.293c0.632-0.852,0.934-2.265,0.934-4.23
			c0-1.836-0.318-3.191-0.963-4.079c-0.637-0.888-1.426-1.334-2.363-1.334c-0.974,0-1.798,0.437-2.452,1.305
			C766.6,204.579,766.287,205.857,766.287,207.568z M762.3,199.131h3.75v2.561c0.486-0.87,1.147-1.594,1.981-2.127
			c0.822-0.563,1.75-0.822,2.748-0.822c1.767,0,3.262,0.789,4.485,2.388c1.239,1.575,1.843,3.797,1.843,6.636
			c0,2.914-0.604,5.187-1.843,6.798c-1.246,1.628-2.741,2.434-4.498,2.434c-0.847,0-1.611-0.19-2.289-0.584
			c-0.678-0.384-1.408-1.044-2.161-1.966v8.797H762.3V199.131z M744.224,199.131h4.278l3.632,12.407l3.541-12.407h4.174
			l-5.367,16.816l-0.962,3.027c-0.347,1.014-0.673,1.807-1.008,2.357c-0.313,0.533-0.678,0.962-1.102,1.3
			c-0.411,0.34-0.921,0.596-1.53,0.776c-0.603,0.195-1.28,0.295-2.052,0.295c-0.765,0-1.524-0.1-2.271-0.295l-0.359-3.623
			c0.626,0.141,1.205,0.203,1.709,0.203c0.934,0,1.617-0.302,2.069-0.934c0.451-0.62,0.8-1.431,1.031-2.393L744.224,199.131z
			 M731.462,207.506c0,1.854,0.308,3.21,0.934,4.062c0.626,0.868,1.396,1.305,2.313,1.305c0.973,0,1.819-0.453,2.486-1.321
			c0.678-0.888,1.003-2.21,1.003-3.93c0-1.809-0.325-3.16-0.963-4.028c-0.648-0.888-1.461-1.314-2.457-1.314
			c-0.962,0-1.756,0.427-2.382,1.285C731.77,204.432,731.462,205.732,731.462,207.506z M727.881,217.757l4.59,0.644
			c0.069,0.608,0.237,1.03,0.521,1.27c0.383,0.318,0.979,0.487,1.803,0.487c1.049,0,1.825-0.181,2.353-0.553
			c0.354-0.236,0.62-0.63,0.806-1.157c0.116-0.389,0.191-1.096,0.191-2.128v-2.55c-1.206,1.896-2.718,2.827-4.549,2.827
			c-2.041,0-3.669-0.989-4.846-2.967c-0.938-1.583-1.414-3.529-1.414-5.864c0-2.934,0.614-5.152,1.843-6.718
			c1.229-1.534,2.759-2.306,4.572-2.306c1.872,0,3.419,0.938,4.654,2.839v-2.45h3.75v15.676c0,2.063-0.145,3.611-0.446,4.624
			c-0.278,1.016-0.713,1.821-1.229,2.4c-0.539,0.579-1.251,1.032-2.15,1.368c-0.893,0.318-2.022,0.504-3.378,0.504
			c-2.572,0-4.404-0.521-5.477-1.537c-1.083-1.013-1.611-2.306-1.611-3.848C727.863,218.157,727.863,217.959,727.881,217.757z
			 M708.732,216.597v-24.119h15.544v4.091h-11.29v5.334H723.5v4.078h-10.514v6.555h11.695v4.062H708.732z M694.471,205.539h7.888
			v4.627h-7.888V205.539z M676.197,207.865c0,1.736,0.359,3.059,1.072,3.975c0.719,0.917,1.6,1.39,2.648,1.39
			c1.056,0,1.924-0.473,2.632-1.39c0.713-0.916,1.077-2.256,1.077-4.012c0-1.703-0.364-3.029-1.077-3.945
			c-0.708-0.922-1.576-1.385-2.632-1.385c-1.049,0-1.93,0.463-2.648,1.385C676.557,204.799,676.197,206.138,676.197,207.865z
			 M672.082,207.621c0-1.531,0.326-3.032,0.98-4.463c0.654-1.433,1.594-2.527,2.798-3.287c1.206-0.758,2.552-1.129,4.041-1.129
			c2.3,0,4.184,0.834,5.65,2.578c1.472,1.705,2.202,3.867,2.202,6.496c0,2.644-0.73,4.829-2.221,6.566
			c-1.489,1.746-3.338,2.614-5.599,2.614c-1.391,0-2.723-0.353-3.975-1.095c-1.281-0.715-2.243-1.773-2.897-3.175
			C672.408,211.328,672.082,209.638,672.082,207.621z M665.465,216.597h-4.017v-17.466h3.721v2.479
			c0.643-1.175,1.223-1.952,1.733-2.318c0.498-0.372,1.083-0.55,1.727-0.55c0.927,0,1.796,0.294,2.666,0.868l-1.265,4.028
			c-0.659-0.497-1.304-0.753-1.865-0.753c-0.574,0-1.055,0.174-1.442,0.533c-0.395,0.348-0.702,0.996-0.934,1.93
			c-0.215,0.934-0.324,2.88-0.324,5.864V216.597z M423.72,216.597h-4.016v-17.466h3.727v2.479c0.638-1.175,1.223-1.952,1.727-2.318
			c0.505-0.372,1.085-0.55,1.733-0.55c0.915,0,1.797,0.294,2.659,0.868l-1.263,4.028c-0.661-0.497-1.298-0.753-1.872-0.753
			c-0.567,0-1.043,0.174-1.438,0.533c-0.394,0.348-0.694,0.996-0.927,1.93c-0.22,0.934-0.331,2.88-0.331,5.864V216.597z
			 M653.479,199.131h4.022v17.466h-4.022V199.131z M653.479,192.478h4.022v4.281h-4.022V192.478z M645.563,208.217
			c-0.504,0.193-1.321,0.435-2.434,0.707c-1.124,0.272-1.837,0.533-2.196,0.789c-0.516,0.434-0.782,0.983-0.782,1.628
			c0,0.661,0.208,1.211,0.632,1.693c0.417,0.463,0.956,0.706,1.593,0.706c0.731,0,1.42-0.272,2.087-0.822
			c0.481-0.417,0.8-0.934,0.95-1.524c0.104-0.405,0.15-1.147,0.15-2.26V208.217z M640.196,204.461l-3.651-0.76
			c0.418-1.69,1.113-2.926,2.122-3.748c1.002-0.806,2.485-1.211,4.462-1.211c1.791,0,3.124,0.243,3.998,0.724
			c0.876,0.504,1.496,1.119,1.855,1.854c0.347,0.755,0.539,2.145,0.539,4.137l-0.047,5.403c0,1.546,0.063,2.673,0.203,3.396
			c0.116,0.729,0.371,1.518,0.718,2.34h-3.981c-0.104-0.313-0.237-0.757-0.388-1.355c-0.064-0.272-0.116-0.464-0.139-0.55
			c-0.69,0.771-1.42,1.338-2.196,1.722c-0.783,0.394-1.624,0.584-2.516,0.584c-1.559,0-2.8-0.497-3.692-1.472
			c-0.903-0.962-1.355-2.202-1.355-3.705c0-0.979,0.215-1.848,0.614-2.641c0.417-0.77,0.997-1.352,1.738-1.769
			c0.73-0.4,1.798-0.757,3.199-1.078c1.867-0.397,3.164-0.774,3.883-1.129v-0.471c0-0.885-0.186-1.505-0.567-1.9
			c-0.383-0.364-1.089-0.555-2.161-0.555c-0.713,0-1.271,0.154-1.664,0.473C640.764,203.076,640.439,203.639,640.196,204.461z
			 M629.486,207.736l4.103,1.496c-0.631,2.624-1.668,4.59-3.135,5.864c-1.466,1.269-3.326,1.917-5.575,1.917
			c-2.775,0-5.07-1.095-6.861-3.29c-1.791-2.173-2.694-5.164-2.694-8.971c0-4.011,0.915-7.123,2.711-9.345
			c1.791-2.224,4.15-3.331,7.105-3.331c2.551,0,4.642,0.871,6.236,2.607c0.967,1.032,1.68,2.517,2.167,4.446l-4.208,1.16
			c-0.231-1.255-0.759-2.256-1.558-2.963c-0.777-0.724-1.722-1.095-2.857-1.095c-1.554,0-2.816,0.637-3.772,1.93
			c-0.975,1.273-1.461,3.355-1.461,6.235c0,3.042,0.481,5.223,1.432,6.508c0.956,1.293,2.202,1.93,3.721,1.93
			c1.124,0,2.085-0.4,2.897-1.223C628.548,210.795,629.139,209.493,629.486,207.736z M605.134,211.968h4.022v3.319
			c0,1.339-0.099,2.4-0.308,3.16c-0.196,0.776-0.574,1.466-1.141,2.079c-0.552,0.627-1.264,1.106-2.122,1.449l-0.776-1.905
			c0.8-0.304,1.385-0.738,1.728-1.254c0.336-0.543,0.521-1.286,0.539-2.22h-1.942V211.968z M588.803,216.597v-24.119h4.022v12.806
			l4.693-6.152h4.955l-5.181,6.38l5.552,11.086h-4.329l-3.825-7.847l-1.865,2.25v5.597H588.803z M581.675,206.364
			c-0.024-1.334-0.324-2.354-0.893-3.044c-0.568-0.707-1.264-1.042-2.093-1.042c-0.88,0-1.599,0.364-2.167,1.104
			c-0.574,0.727-0.857,1.728-0.853,2.981H581.675z M581.448,211.051l4.016,0.76c-0.521,1.687-1.332,2.979-2.445,3.855
			c-1.112,0.88-2.509,1.331-4.172,1.331c-2.638,0-4.591-0.996-5.859-2.979c-1.003-1.599-1.513-3.61-1.513-6.027
			c0-2.88,0.672-5.157,1.981-6.798c1.321-1.645,2.979-2.45,5.002-2.45c2.248,0,4.033,0.834,5.337,2.578
			c1.31,1.705,1.936,4.335,1.878,7.876h-10.062c0.024,1.375,0.349,2.434,0.963,3.21c0.62,0.756,1.402,1.127,2.33,1.127
			c0.626,0,1.153-0.193,1.582-0.581C580.909,212.552,581.239,211.902,581.448,211.051z M440.625,206.364
			c-0.022-1.334-0.324-2.354-0.886-3.044c-0.574-0.707-1.27-1.042-2.093-1.042c-0.887,0-1.6,0.364-2.167,1.104
			c-0.579,0.727-0.858,1.728-0.852,2.981H440.625z M440.406,211.051l4.01,0.76c-0.522,1.687-1.328,2.979-2.446,3.855
			c-1.101,0.88-2.503,1.331-4.16,1.331c-2.643,0-4.591-0.996-5.865-2.979c-1.009-1.599-1.513-3.61-1.513-6.027
			c0-2.88,0.672-5.157,1.981-6.798c1.316-1.645,2.973-2.45,4.996-2.45c2.249,0,4.039,0.834,5.338,2.578
			c1.31,1.705,1.936,4.335,1.878,7.876h-10.062c0.023,1.375,0.348,2.434,0.963,3.21c0.626,0.756,1.407,1.127,2.329,1.127
			c0.632,0,1.158-0.193,1.588-0.581C439.86,212.552,440.191,211.902,440.406,211.051z M456.806,206.364
			c-0.028-1.334-0.324-2.354-0.892-3.044c-0.573-0.707-1.27-1.042-2.092-1.042c-0.882,0-1.605,0.364-2.169,1.104
			c-0.572,0.727-0.857,1.728-0.851,2.981H456.806z M456.574,211.051l4.011,0.76c-0.516,1.687-1.321,2.979-2.44,3.855
			c-1.106,0.88-2.509,1.331-4.167,1.331c-2.643,0-4.589-0.996-5.858-2.979c-1.003-1.599-1.513-3.61-1.513-6.027
			c0-2.88,0.673-5.157,1.981-6.798c1.315-1.645,2.979-2.45,4.997-2.45c2.248,0,4.033,0.834,5.337,2.578
			c1.315,1.705,1.93,4.335,1.871,7.876h-10.055c0.029,1.375,0.349,2.434,0.963,3.21c0.619,0.756,1.408,1.127,2.324,1.127
			c0.637,0,1.158-0.193,1.587-0.581C456.035,212.552,456.366,211.902,456.574,211.051z M564.531,192.478h4.011v24.119h-4.011
			V192.478z M556.603,208.217c-0.509,0.193-1.31,0.435-2.439,0.707c-1.106,0.272-1.837,0.533-2.185,0.789
			c-0.516,0.434-0.782,0.983-0.782,1.628c0,0.661,0.208,1.211,0.632,1.693c0.411,0.463,0.944,0.706,1.588,0.706
			c0.742,0,1.426-0.272,2.086-0.822c0.487-0.417,0.806-0.934,0.956-1.524c0.111-0.405,0.145-1.147,0.145-2.26V208.217z
			 M551.248,204.461l-3.651-0.76c0.412-1.69,1.107-2.926,2.122-3.748c0.991-0.806,2.479-1.211,4.444-1.211
			c1.803,0,3.13,0.243,4.011,0.724c0.875,0.504,1.495,1.119,1.849,1.854c0.359,0.755,0.534,2.145,0.534,4.137l-0.035,5.403
			c0,1.546,0.052,2.673,0.196,3.396c0.128,0.729,0.372,1.518,0.725,2.34h-3.987c-0.099-0.313-0.237-0.757-0.388-1.355
			c-0.058-0.272-0.105-0.464-0.139-0.55c-0.685,0.771-1.427,1.338-2.202,1.722c-0.777,0.394-1.611,0.584-2.504,0.584
			c-1.565,0-2.794-0.497-3.698-1.472c-0.904-0.962-1.351-2.202-1.351-3.705c0-0.979,0.215-1.848,0.626-2.641
			c0.4-0.77,0.979-1.352,1.704-1.769c0.742-0.4,1.826-0.757,3.217-1.078c1.865-0.397,3.176-0.774,3.882-1.129v-0.471
			c0-0.885-0.174-1.505-0.556-1.9c-0.376-0.364-1.102-0.555-2.167-0.555c-0.719,0-1.265,0.154-1.67,0.473
			C551.812,203.076,551.491,203.639,551.248,204.461z M521.889,199.131h3.71v2.388c1.326-1.86,2.915-2.776,4.734-2.776
			c0.984,0,1.819,0.231,2.532,0.694c0.73,0.454,1.299,1.148,1.762,2.082c0.661-0.934,1.391-1.628,2.156-2.082
			c0.777-0.463,1.6-0.694,2.469-0.694c1.124,0,2.063,0.26,2.846,0.771c0.76,0.521,1.332,1.291,1.721,2.294
			c0.278,0.753,0.417,1.959,0.417,3.621v11.168h-4.021v-9.979c0-1.738-0.139-2.851-0.418-3.359c-0.37-0.645-0.938-0.979-1.715-0.979
			c-0.556,0-1.089,0.19-1.6,0.589c-0.475,0.391-0.828,0.969-1.055,1.722c-0.22,0.776-0.336,1.983-0.336,3.628v8.38h-4.021v-9.573
			c0-1.691-0.07-2.781-0.203-3.286c-0.134-0.499-0.365-0.852-0.673-1.095c-0.296-0.239-0.701-0.364-1.223-0.364
			c-0.614,0-1.176,0.19-1.663,0.574c-0.505,0.386-0.858,0.931-1.072,1.661c-0.215,0.725-0.318,1.913-0.318,3.588v8.495h-4.028
			V199.131z M514.285,208.217c-0.51,0.193-1.322,0.435-2.439,0.707c-1.107,0.272-1.85,0.533-2.186,0.789
			c-0.527,0.434-0.794,0.983-0.794,1.628c0,0.661,0.215,1.211,0.632,1.693c0.418,0.463,0.957,0.706,1.611,0.706
			c0.719,0,1.403-0.272,2.068-0.822c0.476-0.417,0.806-0.934,0.957-1.524c0.104-0.405,0.15-1.147,0.15-2.26V208.217z
			 M508.918,204.461l-3.65-0.76c0.411-1.69,1.113-2.926,2.109-3.748c1.008-0.806,2.491-1.211,4.469-1.211
			c1.791,0,3.123,0.243,4.004,0.724c0.882,0.504,1.495,1.119,1.849,1.854c0.349,0.755,0.533,2.145,0.533,4.137l-0.04,5.403
			c0,1.546,0.069,2.673,0.197,3.396c0.128,0.729,0.382,1.518,0.725,2.34h-3.981c-0.104-0.313-0.237-0.757-0.384-1.355
			c-0.063-0.272-0.115-0.464-0.15-0.55c-0.684,0.771-1.414,1.338-2.19,1.722c-0.782,0.394-1.622,0.584-2.504,0.584
			c-1.57,0-2.804-0.497-3.702-1.472c-0.887-0.962-1.352-2.202-1.352-3.705c0-0.979,0.209-1.848,0.615-2.641
			c0.416-0.77,0.99-1.352,1.727-1.769c0.736-0.4,1.809-0.757,3.199-1.078c1.866-0.397,3.176-0.774,3.895-1.129v-0.471
			c0-0.885-0.196-1.505-0.574-1.9c-0.376-0.364-1.089-0.555-2.149-0.555c-0.719,0-1.275,0.154-1.675,0.473
			C509.481,203.076,509.168,203.639,508.918,204.461z M486.235,216.597v-4.38l11.012-15.648h-9.771v-4.091h15.346v3.79
			l-11.486,16.268h11.938v4.062H486.235z M474.923,211.968h4.016v3.319c0,1.339-0.104,2.4-0.289,3.16
			c-0.203,0.776-0.585,1.466-1.13,2.079c-0.568,0.627-1.275,1.106-2.139,1.449l-0.794-1.905c0.816-0.304,1.401-0.738,1.75-1.254
			c0.336-0.543,0.516-1.286,0.539-2.22h-1.953V211.968z M416.598,199.131v3.692h-2.735v7.034c0,1.42,0.011,2.26,0.07,2.486
			c0.046,0.236,0.162,0.43,0.358,0.596c0.186,0.145,0.413,0.223,0.684,0.223c0.365,0,0.904-0.141,1.611-0.435l0.349,3.575
			c-0.951,0.468-1.994,0.694-3.188,0.694c-0.719,0-1.374-0.145-1.958-0.417c-0.568-0.277-0.998-0.649-1.287-1.101
			c-0.267-0.429-0.446-1.032-0.545-1.784c-0.093-0.533-0.133-1.648-0.133-3.269v-7.604h-1.849v-3.692h1.849v-3.477l4.04-2.697v6.174
			H416.598z M470.553,199.131v3.692h-2.735v7.034c0,1.42,0.017,2.26,0.07,2.486c0.046,0.236,0.161,0.43,0.359,0.596
			c0.185,0.145,0.411,0.223,0.678,0.223c0.37,0,0.909-0.141,1.616-0.435l0.349,3.575c-0.95,0.468-1.994,0.694-3.188,0.694
			c-0.719,0-1.368-0.145-1.953-0.417c-0.568-0.277-1.003-0.649-1.287-1.101c-0.267-0.429-0.452-1.032-0.551-1.784
			c-0.098-0.533-0.127-1.648-0.127-3.269v-7.604h-1.854v-3.692h1.854v-3.477l4.033-2.697v6.174H470.553z M389.059,208.75
			l4.114-0.456c0.256,1.597,0.754,2.757,1.519,3.498c0.753,0.76,1.768,1.126,3.072,1.126c1.345,0,2.382-0.338,3.072-1.016
			c0.684-0.637,1.031-1.43,1.031-2.301c0-0.579-0.139-1.066-0.44-1.467c-0.29-0.398-0.794-0.758-1.513-1.047
			c-0.493-0.193-1.634-0.55-3.39-1.045c-2.266-0.648-3.861-1.454-4.776-2.388c-1.286-1.314-1.93-2.942-1.93-4.843
			c0-1.248,0.295-2.389,0.911-3.467c0.602-1.066,1.472-1.867,2.607-2.434c1.143-0.551,2.515-0.835,4.138-0.835
			c2.62,0,4.607,0.661,5.934,1.976c1.328,1.339,2.018,3.111,2.092,5.333l-4.225,0.19c-0.192-1.234-0.58-2.122-1.171-2.653
			c-0.597-0.545-1.483-0.825-2.677-0.825c-1.228,0-2.196,0.297-2.891,0.871c-0.446,0.377-0.673,0.869-0.673,1.501
			c0,0.566,0.215,1.062,0.632,1.466c0.533,0.517,1.831,1.05,3.882,1.611c2.07,0.563,3.588,1.142,4.579,1.744
			c0.974,0.592,1.745,1.414,2.307,2.441c0.568,1.03,0.847,2.322,0.847,3.84c0,1.38-0.343,2.689-1.01,3.879
			c-0.66,1.206-1.605,2.108-2.827,2.688c-1.229,0.603-2.747,0.888-4.555,0.888c-2.654,0-4.695-0.707-6.121-2.108
			C390.183,213.497,389.325,211.456,389.059,208.75z M373.828,199.131h4.01v17.466h-4.01V199.131z M373.828,192.478h4.01v4.281
			h-4.01V192.478z M365.691,192.478h4.022v24.119h-4.022V192.478z M355.688,207.059l-2.897-8.943l-2.834,8.943H355.688z
			 M363.478,216.597h-4.603l-1.843-5.48h-8.368l-1.727,5.48h-4.492l8.166-24.119h4.475L363.478,216.597z M334.697,199.131v3.692
			h-2.735v7.034c0,1.42,0.023,2.26,0.081,2.486c0.053,0.236,0.163,0.43,0.359,0.596c0.186,0.145,0.411,0.223,0.673,0.223
			c0.382,0,0.921-0.141,1.622-0.435l0.337,3.575c-0.928,0.468-1.994,0.694-3.182,0.694c-0.713,0-1.368-0.145-1.948-0.417
			c-0.579-0.277-1.002-0.649-1.281-1.101c-0.277-0.429-0.452-1.032-0.562-1.784c-0.087-0.533-0.132-1.648-0.132-3.269v-7.604h-1.843
			v-3.692h1.843v-3.477l4.033-2.697v6.174H334.697z M319.832,208.217c-0.504,0.193-1.333,0.435-2.44,0.707
			c-1.119,0.272-1.843,0.533-2.191,0.789c-0.521,0.434-0.788,0.983-0.788,1.628c0,0.661,0.209,1.211,0.632,1.693
			c0.423,0.463,0.956,0.706,1.605,0.706c0.73,0,1.403-0.272,2.075-0.822c0.487-0.417,0.812-0.934,0.95-1.524
			c0.11-0.405,0.157-1.147,0.157-2.26V208.217z M314.465,204.461l-3.645-0.76c0.399-1.69,1.101-2.926,2.109-3.748
			c0.996-0.806,2.479-1.211,4.462-1.211c1.802,0,3.13,0.243,3.998,0.724c0.888,0.504,1.49,1.119,1.849,1.854
			c0.354,0.755,0.551,2.145,0.551,4.137l-0.047,5.403c0,1.546,0.058,2.673,0.198,3.396c0.116,0.729,0.364,1.518,0.719,2.34h-3.977
			c-0.104-0.313-0.244-0.757-0.388-1.355c-0.064-0.272-0.122-0.464-0.133-0.55c-0.702,0.771-1.426,1.338-2.202,1.722
			c-0.789,0.394-1.629,0.584-2.516,0.584c-1.564,0-2.804-0.497-3.692-1.472c-0.903-0.962-1.355-2.202-1.355-3.705
			c0-0.979,0.203-1.848,0.609-2.641c0.417-0.77,0.99-1.352,1.726-1.769c0.737-0.4,1.809-0.757,3.212-1.078
			c1.866-0.397,3.175-0.774,3.888-1.129v-0.471c0-0.885-0.192-1.505-0.574-1.9c-0.376-0.364-1.101-0.555-2.155-0.555
			c-0.712,0-1.276,0.154-1.681,0.473C315.027,203.076,314.715,203.639,314.465,204.461z M296.784,207.506
			c0,1.854,0.312,3.21,0.938,4.062c0.626,0.868,1.391,1.305,2.306,1.305c0.985,0,1.82-0.453,2.493-1.321
			c0.671-0.888,1.008-2.21,1.008-3.93c0-1.809-0.325-3.16-0.969-4.028c-0.643-0.888-1.455-1.314-2.463-1.314
			c-0.962,0-1.75,0.427-2.376,1.285C297.096,204.432,296.784,205.732,296.784,207.506z M293.202,217.757l4.59,0.644
			c0.081,0.608,0.244,1.03,0.521,1.27c0.382,0.318,0.985,0.487,1.808,0.487c1.049,0,1.826-0.181,2.348-0.553
			c0.358-0.236,0.631-0.63,0.805-1.157c0.128-0.389,0.192-1.096,0.192-2.128v-2.55c-1.2,1.896-2.719,2.827-4.549,2.827
			c-2.041,0-3.651-0.989-4.845-2.967c-0.933-1.583-1.415-3.529-1.415-5.864c0-2.934,0.626-5.152,1.849-6.718
			c1.229-1.534,2.753-2.306,4.572-2.306c1.867,0,3.414,0.938,4.648,2.839v-2.45h3.756v15.676c0,2.063-0.151,3.611-0.44,4.624
			c-0.301,1.016-0.719,1.821-1.246,2.4c-0.539,0.579-1.246,1.032-2.145,1.368c-0.886,0.318-2.012,0.504-3.374,0.504
			c-2.584,0-4.411-0.521-5.477-1.537c-1.089-1.013-1.611-2.306-1.611-3.848C293.19,218.157,293.196,217.959,293.202,217.757z
			 M279.682,192.478v8.872c1.304-1.739,2.845-2.607,4.641-2.607c0.934,0,1.774,0.197,2.516,0.578
			c0.735,0.406,1.304,0.905,1.675,1.521c0.376,0.612,0.637,1.285,0.775,2.045c0.14,0.741,0.204,1.896,0.204,3.459v10.252h-4.01
			v-9.236c0-1.821-0.082-2.979-0.232-3.478c-0.156-0.5-0.428-0.886-0.811-1.178c-0.395-0.289-0.87-0.427-1.45-0.427
			c-0.672,0-1.263,0.174-1.796,0.555c-0.516,0.371-0.898,0.934-1.136,1.681c-0.256,0.753-0.376,1.865-0.376,3.332v8.751h-4.016
			v-24.119H279.682z M267.772,208.217c-0.51,0.193-1.333,0.435-2.446,0.707c-1.113,0.272-1.843,0.533-2.19,0.789
			c-0.516,0.434-0.795,0.983-0.795,1.628c0,0.661,0.227,1.211,0.644,1.693c0.417,0.463,0.944,0.706,1.611,0.706
			c0.719,0,1.401-0.272,2.057-0.822c0.487-0.417,0.812-0.934,0.968-1.524c0.104-0.405,0.151-1.147,0.151-2.26V208.217z
			 M262.394,204.461l-3.652-0.76c0.417-1.69,1.119-2.926,2.127-3.748c0.996-0.806,2.485-1.211,4.457-1.211
			c1.797,0,3.124,0.243,4.01,0.724c0.876,0.504,1.496,1.119,1.855,1.854c0.359,0.755,0.521,2.145,0.521,4.137l-0.029,5.403
			c0,1.546,0.053,2.673,0.192,3.396c0.128,0.729,0.365,1.518,0.719,2.34h-3.987c-0.081-0.313-0.221-0.757-0.372-1.355
			c-0.069-0.272-0.116-0.464-0.151-0.55c-0.684,0.771-1.425,1.338-2.202,1.722c-0.781,0.394-1.616,0.584-2.492,0.584
			c-1.564,0-2.805-0.497-3.708-1.472c-0.893-0.962-1.351-2.202-1.351-3.705c0-0.979,0.215-1.848,0.626-2.641
			c0.4-0.77,0.979-1.352,1.71-1.769c0.748-0.4,1.814-0.757,3.21-1.078c1.872-0.397,3.176-0.774,3.895-1.129v-0.471
			c0-0.885-0.186-1.505-0.568-1.9c-0.388-0.364-1.101-0.555-2.167-0.555c-0.707,0-1.264,0.154-1.669,0.473
			C262.967,203.076,262.643,203.639,262.394,204.461z M242.527,206.09v6.445h3.912c1.524,0,2.485-0.054,2.903-0.146
			c0.626-0.128,1.136-0.451,1.53-0.967c0.395-0.499,0.604-1.194,0.604-2.041c0-0.73-0.163-1.344-0.453-1.843
			c-0.313-0.516-0.753-0.885-1.333-1.112c-0.58-0.227-1.82-0.337-3.744-0.337H242.527z M242.527,196.504v5.571h2.77
			c1.646,0,2.667-0.028,3.072-0.077c0.719-0.096,1.287-0.388,1.71-0.868c0.412-0.47,0.62-1.114,0.62-1.892
			c0-0.74-0.174-1.348-0.533-1.818c-0.359-0.463-0.882-0.74-1.599-0.834c-0.423-0.063-1.624-0.082-3.617-0.082H242.527z
			 M238.285,192.478h8.38c1.664,0,2.904,0.075,3.709,0.261c0.823,0.145,1.554,0.479,2.185,0.979
			c0.655,0.499,1.183,1.177,1.617,2.012c0.429,0.839,0.637,1.79,0.637,2.821c0,1.129-0.254,2.179-0.788,3.112
			c-0.533,0.95-1.252,1.657-2.156,2.12c1.281,0.441,2.261,1.16,2.944,2.197c0.696,1.03,1.032,2.236,1.032,3.641
			c0,1.095-0.214,2.156-0.661,3.186c-0.44,1.025-1.054,1.867-1.82,2.48c-0.765,0.615-1.715,0.996-2.839,1.143
			c-0.702,0.104-2.411,0.15-5.112,0.167h-7.128V192.478z M221.866,211.968h4.022v3.319c0,1.339-0.099,2.4-0.296,3.16
			c-0.198,0.776-0.591,1.466-1.136,2.079c-0.568,0.627-1.275,1.106-2.128,1.449l-0.781-1.905c0.812-0.304,1.378-0.738,1.727-1.254
			c0.347-0.543,0.521-1.286,0.544-2.22h-1.953V211.968z M218.401,212.308v4.289h-14.089c0.15-1.628,0.615-3.165,1.379-4.612
			c0.748-1.449,2.271-3.379,4.515-5.784c1.814-1.93,2.921-3.251,3.332-3.946c0.55-0.95,0.823-1.9,0.823-2.817
			c0-1.03-0.231-1.835-0.719-2.381c-0.486-0.569-1.147-0.842-2.004-0.842c-0.835,0-1.496,0.309-1.994,0.871
			c-0.487,0.596-0.777,1.546-0.858,2.896l-4.005-0.468c0.244-2.523,0.985-4.365,2.255-5.478c1.252-1.088,2.829-1.641,4.717-1.641
			c2.063,0,3.698,0.625,4.879,1.918c1.182,1.288,1.769,2.87,1.769,4.788c0,1.078-0.169,2.104-0.51,3.09
			c-0.331,1.001-0.876,2.017-1.611,3.092c-0.475,0.715-1.357,1.74-2.626,3.078c-1.274,1.339-2.074,2.227-2.411,2.656
			c-0.336,0.456-0.614,0.868-0.823,1.29H218.401z"/>
	</g>
</g>
</svg>
